<svg width="375" height="812" viewBox="0 0 375 812" fill="none" xmlns="http://www.w3.org/2000/svg">
<g clip-path="url(#clip0_2_152)">
<rect width="375" height="812" fill="#07362E"/>
<path opacity="0.2" d="M300.264 118.968C290.297 116.736 283.538 106.063 285.804 95.9757C288.185 85.1871 298.569 78.5209 309.099 80.8296C319.611 83.2067 326.306 93.5707 323.949 103.999C321.55 114.856 311.202 121.386 300.264 118.968Z" fill="url(#paint0_linear_2_152)"/>
<path opacity="0.2" d="M107.264 679.968C97.2966 677.736 90.5382 667.063 92.8038 656.976C95.1845 646.187 105.569 639.521 116.099 641.83C126.611 644.207 133.306 654.571 130.949 664.999C128.55 675.856 118.202 682.386 107.264 679.968Z" fill="url(#paint1_linear_2_152)"/>
<g clip-path="url(#clip1_2_152)">
<path fill-rule="evenodd" clip-rule="evenodd" d="M337.098 330.939H343.473C343.473 320.934 334.19 312.811 322.756 312.811V318.389C330.67 318.389 337.098 324.015 337.098 330.939Z" fill="#FF914D"/>
<path d="M136.478 197.387L129.179 191L123.74 195.759L131.026 202.146L123.74 208.532L129.179 213.291L136.478 206.904L143.776 213.291L149.215 208.532L141.916 202.146L149.215 195.759L143.776 191L136.478 197.387Z" fill="#0B483E"/>
<path d="M216.545 633.404L210.046 627.716L205.203 631.954L211.691 637.642L205.203 643.329L210.046 647.567L216.545 641.88L223.045 647.567L227.888 643.329L221.389 637.642L227.888 631.954L223.045 627.716L216.545 633.404Z" fill="#0B483E"/>
<path fill-rule="evenodd" clip-rule="evenodd" d="M61.0223 658.929L61.0337 658.932L61.0337 658.932C63.3377 659.57 65.1466 659.222 66.3462 658.487C67.5472 657.751 68.5478 656.376 68.6587 654.249L75.7276 654.532C75.5301 658.319 73.6329 661.581 70.4052 663.559C67.1776 665.537 63.0294 665.979 58.9031 664.836C56.584 664.202 54.7667 664.555 53.5666 665.29C52.367 666.025 51.3743 667.394 51.2723 669.507L51.2718 669.517L51.2718 669.517C51.0743 673.304 49.1771 676.567 45.9493 678.544C42.7201 680.523 38.5692 680.964 34.4409 679.82L36.5779 673.917C38.8819 674.556 40.6907 674.207 41.8903 673.472C43.0905 672.737 44.0906 671.363 44.2026 669.239C44.3871 665.456 46.2801 662.196 49.5076 660.218C52.7353 658.24 56.8878 657.796 61.0223 658.929Z" fill="#219653"/>
<path fill-rule="evenodd" clip-rule="evenodd" d="M32.6042 291.808L32.5948 291.81L32.5948 291.81C30.7085 292.144 29.3102 291.734 28.4319 291.062C27.5525 290.39 26.894 289.227 27.0129 287.535L21.3886 287.232C21.1768 290.245 22.3618 292.97 24.7251 294.776C27.0882 296.582 30.3297 297.241 33.7077 296.644C35.6055 296.314 37.0101 296.729 37.8888 297.4C38.7671 298.071 39.4201 299.229 39.2954 300.909L39.2948 300.918L39.2948 300.918C39.083 303.931 40.2679 306.655 42.6313 308.461C44.9956 310.268 48.2392 310.927 51.6191 310.328L50.501 305.495C48.6147 305.829 47.2164 305.419 46.3381 304.747C45.4593 304.076 44.8011 302.914 44.9189 301.224C45.1406 298.214 43.9588 295.493 41.5957 293.686C39.2323 291.88 35.9878 291.219 32.6042 291.808Z" fill="#FEC265"/>
<circle cx="21.1601" cy="579.16" r="15.1398" transform="rotate(-36.2229 21.1601 579.16)" fill="#FEC265"/>
<circle cx="15.1398" cy="15.1398" r="15.1398" transform="matrix(0.24937 0.968408 0.968408 -0.24937 276 198.551)" fill="#07362E"/>
<path d="M397 497.784C392.056 503.8 384.036 503.8 379.126 497.784C374.183 491.769 366.162 491.769 361.253 497.784C356.309 503.8 348.288 503.8 343.379 497.784" fill="#0B483E"/>
<path d="M397 507.71C392.056 513.725 384.036 513.725 379.126 507.71C374.183 501.694 366.162 501.694 361.253 507.71C356.309 513.725 348.288 513.725 343.379 507.71" fill="#0B483E"/>
<path d="M397 518.086C392.056 523.5 384.036 523.5 379.126 518.086C374.183 512.672 366.162 512.672 361.253 518.086C356.309 523.5 348.288 523.5 343.379 518.086" fill="#0B483E"/>
<g clip-path="url(#clip2_2_152)">
<path d="M232.049 463.842C234.235 461.358 236.187 458.951 238.372 456.777C245.476 449.713 256.093 448.238 264.524 452.973C273.424 458.02 277.874 468.112 275.297 477.816C272.721 487.442 264.134 494.274 254.22 494.351C247.35 494.429 241.729 491.479 236.967 486.666C231.503 481.154 231.425 481.154 225.179 485.424C199.418 502.813 166.084 502.27 140.557 483.716C137.278 481.309 135.56 481.542 133.062 484.414C129.081 489.072 124.397 492.799 117.918 493.963C106.832 495.982 95.9813 489.305 92.7806 478.126C89.7361 467.491 95.669 455.535 105.974 451.887C115.185 448.626 123.304 450.489 130.252 457.398C136.809 463.997 136.888 463.997 141.65 455.846C146.333 447.772 148.051 438.767 150.081 429.839C152.266 420.135 155.935 411.207 163.82 404.764C181.307 390.48 206.053 397.699 214.797 419.514C217.763 426.967 218.934 434.963 221.042 442.648C223.072 450.179 226.35 457.166 232.049 463.842ZM184.898 485.812C186.459 485.657 189.035 485.501 191.611 485.191C202.306 483.949 211.83 479.912 220.496 473.624C222.135 472.459 222.213 471.45 220.886 469.82C214.016 461.28 210.113 451.421 207.693 440.863C205.897 433.1 204.882 425.103 199.964 418.349C191.611 406.86 176.311 406.86 167.958 418.272C164.523 423.007 162.805 428.364 161.712 433.954C159.058 446.996 155.389 459.572 146.802 470.053C144.85 472.459 146.88 473.235 148.207 474.167C158.902 481.853 170.846 485.501 184.898 485.812ZM113.936 462.6C109.955 462.677 106.208 465.239 104.881 468.81C103.554 472.614 104.568 476.807 107.535 479.368C110.814 482.241 114.873 482.784 118.698 480.688C121.899 478.903 124.085 475.875 126.739 473.391C127.207 472.925 127.442 472.381 127.207 471.683C126.271 468.655 117.449 462.6 113.936 462.6ZM253.829 462.6C250.395 462.6 242.198 468.267 240.792 471.528C240.402 472.459 240.792 473.003 241.339 473.546C243.837 475.953 246.023 478.825 249.067 480.61C252.893 482.862 256.874 482.396 260.231 479.524C263.119 477.039 264.368 472.614 263.119 468.966C261.792 465.239 258.045 462.6 253.829 462.6Z" fill="url(#paint2_linear_2_152)"/>
<path d="M210.269 364.473C210.269 379.3 198.793 390.635 183.805 390.557C168.894 390.479 157.887 379.145 157.575 364.162C157.341 351.974 167.021 337.845 184.117 338C201.448 338.155 211.05 352.362 210.269 364.473ZM184.117 350.188C176.623 350.111 169.909 356.554 169.675 364.162C169.441 371.615 176.389 378.679 183.961 378.679C191.377 378.679 198.169 371.848 198.247 364.473C198.325 357.02 191.611 350.266 184.117 350.188Z" fill="#FEC265"/>
</g>
</g>
<path fill-rule="evenodd" clip-rule="evenodd" d="M261.972 741.594C263.978 740.448 266.471 741.903 266.46 744.213L266.365 764.806C266.354 767.115 263.847 768.547 261.853 767.383L244.066 757.004C242.072 755.84 242.085 752.953 244.09 751.808L261.972 741.594Z" fill="#0B483E"/>
</g>
<defs>
<linearGradient id="paint0_linear_2_152" x1="299.819" y1="118.864" x2="309.953" y2="81.0423" gradientUnits="userSpaceOnUse">
<stop stop-color="white"/>
<stop offset="1" stop-color="white" stop-opacity="0"/>
</linearGradient>
<linearGradient id="paint1_linear_2_152" x1="106.819" y1="679.864" x2="116.953" y2="642.042" gradientUnits="userSpaceOnUse">
<stop stop-color="white"/>
<stop offset="1" stop-color="white" stop-opacity="0"/>
</linearGradient>
<linearGradient id="paint2_linear_2_152" x1="184.002" y1="397.372" x2="184.002" y2="498.062" gradientUnits="userSpaceOnUse">
<stop stop-color="white"/>
<stop offset="1" stop-color="white" stop-opacity="0"/>
</linearGradient>
<clipPath id="clip0_2_152">
<rect width="375" height="812" fill="white"/>
</clipPath>
<clipPath id="clip1_2_152">
<rect width="397" height="514" fill="white" transform="translate(0 191)"/>
</clipPath>
<clipPath id="clip2_2_152">
<rect width="184" height="160" fill="white" transform="translate(92 338)"/>
</clipPath>
</defs>
</svg>
